<svg version="1.2" xmlns="http://www.w3.org/2000/svg" viewBox="0 0 512 512" width="512" height="512">
	<title>youtube-svg</title>
	<style>
		.s0 { fill: #ffffff } 
	</style>
	<path id="Layer" fill-rule="evenodd" class="s0" d="m361.5 1.5c27.3 1.3 45.9 5.6 62.2 11.9 16.8 6.6 31.1 15.3 45.3 29.6 14.3 14.2 23 28.5 29.6 45.3 6.3 16.3 10.6 34.9 11.9 62.2 1.2 27.3 1.5 36 1.5 105.5 0 69.5-0.3 78.2-1.5 105.5-1.3 27.3-5.6 45.9-11.9 62.2-6.6 16.8-15.3 31.1-29.6 45.3-14.2 14.3-28.5 23-45.3 29.6-16.3 6.3-34.9 10.6-62.2 11.9-27.3 1.2-36 1.5-105.5 1.5-69.5 0-78.2-0.3-105.5-1.5-27.3-1.3-45.9-5.6-62.2-11.9-16.8-6.6-31.1-15.3-45.3-29.6-14.3-14.2-23-28.5-29.6-45.3-6.3-16.3-10.6-34.9-11.9-62.2-1.2-27.3-1.5-36-1.5-105.5 0-69.5 0.3-78.2 1.5-105.5 1.3-27.3 5.6-45.9 11.9-62.2 6.6-16.8 15.3-31.1 29.6-45.3 14.2-14.3 28.5-23 45.3-29.6 16.3-6.3 34.9-10.6 62.2-11.9 27.3-1.2 36-1.5 105.5-1.5 69.5 0 78.2 0.3 105.5 1.5zm-208.9 46.1c-25 1.2-38.6 5.3-47.6 8.8-11.9 4.7-20.5 10.2-29.4 19.2-9 8.9-14.5 17.5-19.2 29.4-3.5 9-7.6 22.6-8.8 47.6-1.2 26.9-1.5 35-1.5 103.4 0 68.4 0.3 76.5 1.5 103.4 1.2 25 5.3 38.6 8.8 47.6 4.7 11.9 10.2 20.5 19.2 29.4 8.9 9 17.5 14.5 29.4 19.2 9 3.5 22.6 7.6 47.6 8.8 26.9 1.2 35 1.5 103.4 1.5 68.4 0 76.5-0.3 103.4-1.5 25-1.2 38.6-5.3 47.6-8.8 11.9-4.7 20.5-10.2 29.4-19.2 9-8.9 14.5-17.5 19.2-29.4 3.5-9 7.6-22.6 8.8-47.6 1.2-26.9 1.5-35 1.5-103.4 0-68.4-0.3-76.5-1.5-103.4-1.2-25-5.3-38.6-8.8-47.6-4.7-11.9-10.2-20.5-19.2-29.4-8.9-9-17.5-14.5-29.4-19.2-9-3.5-22.6-7.6-47.6-8.8-26.9-1.2-35-1.5-103.4-1.5-68.4 0-76.5 0.3-103.4 1.5zm234.9 208.4c0 72.6-58.9 131.5-131.5 131.5-72.6 0-131.5-58.9-131.5-131.5 0-72.6 58.9-131.5 131.5-131.5 72.6 0 131.5 58.9 131.5 131.5zm-46.2 0c0-47.1-38.2-85.3-85.3-85.3-47.1 0-85.3 38.2-85.3 85.3 0 47.1 38.2 85.3 85.3 85.3 47.1 0 85.3-38.2 85.3-85.3zm82.1-136.7c0 17-13.8 30.8-30.7 30.8-17 0-30.8-13.8-30.8-30.8 0-16.9 13.8-30.7 30.8-30.7 16.9 0 30.7 13.8 30.7 30.7z"/>
</svg>