<svg version="1.2" xmlns="http://www.w3.org/2000/svg" viewBox="0 0 512 512" width="80" height="80">
	<title>youtube-svg</title>
	<style>
		.s0 { fill: #ffffff } 
	</style>
	<path id="Layer" fill-rule="evenodd" class="s0" d="m512 256c0 0 0 83.3-10.7 123.2-5.9 22.1-23.2 39.4-45.3 45.3-39.9 10.7-200 10.7-200 10.7 0 0-160.1 0-200-10.7-22.1-5.9-39.4-23.2-45.3-45.3-10.7-39.9-10.7-123.2-10.7-123.2 0 0 0-83.3 10.7-123.2 5.9-22.1 23.2-39.4 45.3-45.3 39.9-10.7 200-10.7 200-10.7 0 0 160.1 0 200 10.7 22.1 5.9 39.4 23.2 45.3 45.3 10.7 39.9 10.7 123.2 10.7 123.2zm-174.2 0l-133-76.8v153.6z"/>
</svg>