<svg version="1.2" xmlns="http://www.w3.org/2000/svg" viewBox="0 0 512 512" width="512" height="512">
	<title>5305164_play_video_youtube_youtube logo_icon-svg</title>
	<style>
		.s0 { fill: #ffffff } 
	</style>
	<path id="Layer" class="s0" d="m422.5 109.5q-1.3-0.7-2.6-1.4-1.3-0.7-2.5-1.4-1.3-0.7-2.5-1.5-1.3-0.8-2.5-1.6-3.5-2.3-6.9-4.9-3.4-2.5-6.7-5.3-3.2-2.7-6.3-5.7-3.1-2.9-6-6.1c-19.3-22.1-26.5-44.5-29.1-60.2h0.1c-2.3-13-1.3-21.4-1.2-21.4h-87.9v340c0 4.6 0 9.1-0.2 13.6 0 0.5-0.1 1-0.1 1.6q0 0.4-0.1 0.8 0 0.1 0 0.2c-0.4 6-1.6 12-3.5 17.8-2 5.8-4.6 11.3-7.9 16.5-3.2 5.1-7.1 9.9-11.5 14.1-4.4 4.2-9.3 7.8-14.6 10.8q-4.2 2.4-8.6 4.2-4.4 1.8-9 3-4.6 1.2-9.3 1.8-4.7 0.6-9.5 0.6c-41 0-74.2-33.4-74.2-74.6 0-41.3 33.2-74.7 74.2-74.7q2.9 0 5.8 0.2 2.9 0.2 5.7 0.7 2.9 0.5 5.7 1.1 2.9 0.7 5.6 1.6l0.1-89.5c-11.1-1.5-22.4-1.7-33.6-0.9-11.3 0.9-22.4 2.9-33.2 6.1-10.8 3.2-21.2 7.4-31.1 12.7-10 5.4-19.3 11.7-27.9 18.9q-5.7 4.9-10.9 10.3-5.2 5.4-10 11.3-4.7 5.8-8.9 12-4.2 6.3-7.9 12.8c-3.7 6.4-17.7 32.1-19.4 73.9-1.1 23.7 6.1 48.2 9.4 58.4v0.2c2.2 5.9 10.4 26.3 23.9 43.5q4.1 5.2 8.5 10 4.5 4.9 9.2 9.4 4.8 4.5 9.9 8.6 5.1 4.2 10.5 7.9v-0.2l0.2 0.2c42.6 29 89.8 27.1 89.8 27.1 8.2-0.4 35.5 0 66.6-14.8 34.5-16.3 54.1-40.6 54.1-40.6q4.7-5.5 8.9-11.3 4.2-5.8 7.9-12 3.7-6.1 6.9-12.6 3.2-6.4 5.8-13.1c7.9-20.9 10.6-46 10.6-56v-180.4c1.1 0.6 15.3 10 15.3 10 0 0 20.4 13.1 52.4 21.7 22.9 6.1 53.8 7.3 53.8 7.3v-87.3c-10.9 1.2-32.8-2.2-55.3-13.4z"/>
</svg>